{"asset":{"version":"2.0","generator":"Blockbench 5.0.7 glTF exporter"},"scenes":[{"nodes":[1,3,5],"name":"blockbench_export"}],"scene":0,"nodes":[{"name":"vine2","mesh":0},{"name":"Vines1","children":[0]},{"name":"Vine","mesh":1},{"name":"Vines2","children":[2]},{"name":"Grass","mesh":2},{"name":"GroundGrass","children":[4]}],"bufferViews":[{"buffer":0,"byteOffset":0,"byteLength":48,"target":34962,"byteStride":12},{"buffer":0,"byteOffset":48,"byteLength":48,"target":34962,"byteStride":12},{"buffer":0,"byteOffset":96,"byteLength":32,"target":34962,"byteStride":8},{"buffer":0,"byteOffset":128,"byteLength":12,"target":34963},{"buffer":0,"byteOffset":140,"byteLength":48,"target":34962,"byteStride":12},{"buffer":0,"byteOffset":188,"byteLength":48,"target":34962,"byteStride":12},{"buffer":0,"byteOffset":236,"byteLength":32,"target":34962,"byteStride":8},{"buffer":0,"byteOffset":268,"byteLength":12,"target":34963},{"buffer":0,"byteOffset":280,"byteLength":432,"target":34962,"byteStride":12},{"buffer":0,"byteOffset":712,"byteLength":432,"target":34962,"byteStride":12},{"buffer":0,"byteOffset":1144,"byteLength":288,"target":34962,"byteStride":8},{"buffer":0,"byteOffset":1432,"byteLength":108,"target":34963}],"buffers":[{"byteLength":1540,"uri":"data:application/octet-stream;base64,"}],"accessors":[{"bufferView":0,"componentType":5126,"count":4,"max":[2,1,2.220446049250313e-16],"min":[-2,-1,-2.220446049250313e-16],"type":"VEC3"},{"bufferView":1,"componentType":5126,"count":4,"max":[0,2.220446049250313e-16,-1],"min":[0,2.220446049250313e-16,-1],"type":"VEC3"},{"bufferView":2,"componentType":5126,"count":4,"max":[0.25,0.125],"min":[0,0],"type":"VEC2"},{"bufferView":3,"componentType":5123,"count":6,"max":[3],"min":[0],"type":"SCALAR"},{"bufferView":4,"componentType":5126,"count":4,"max":[2,1,2.220446049250313e-16],"min":[-2,-1,-2.220446049250313e-16],"type":"VEC3"},{"bufferView":5,"componentType":5126,"count":4,"max":[0,2.220446049250313e-16,-1],"min":[0,2.220446049250313e-16,-1],"type":"VEC3"},{"bufferView":6,"componentType":5126,"count":4,"max":[0.5,0.125],"min":[0.25,0],"type":"VEC2"},{"bufferView":7,"componentType":5123,"count":6,"max":[3],"min":[0],"type":"SCALAR"},{"bufferView":8,"componentType":5126,"count":36,"max":[2.5,0.4375,1.625],"min":[-2.5,1.3877787807814457e-17,-1.1875],"type":"VEC3"},{"bufferView":9,"componentType":5126,"count":36,"max":[8.259891415987063e-17,0.5812382102012634,-0.8137334585189819],"min":[7.227405237142864e-17,0.5812382102012634,-0.8137334585189819],"type":"VEC3"},{"bufferView":10,"componentType":5126,"count":36,"max":[0.3125,0.4765625],"min":[0,0.12890625],"type":"VEC2"},{"bufferView":11,"componentType":5123,"count":54,"max":[35],"min":[0],"type":"SCALAR"}],"materials":[{"pbrMetallicRoughness":{"metallicFactor":0,"roughnessFactor":1,"baseColorTexture":{"index":0}},"alphaMode":"MASK","alphaCutoff":0.05,"doubleSided":true}],"textures":[{"sampler":0,"source":0,"name":"texture"}],"samplers":[{"magFilter":9728,"minFilter":9728,"wrapS":33071,"wrapT":33071}],"images":[{"mimeType":"image/png","uri":"data:image/png;base64,"}],"meshes":[{"primitives":[{"mode":4,"attributes":{"POSITION":0,"NORMAL":1,"TEXCOORD_0":2},"indices":3,"material":0}]},{"primitives":[{"mode":4,"attributes":{"POSITION":4,"NORMAL":5,"TEXCOORD_0":6},"indices":7,"material":0}]},{"primitives":[{"mode":4,"attributes":{"POSITION":8,"NORMAL":9,"TEXCOORD_0":10},"indices":11,"material":0}]}]}