{"asset":{"version":"2.0","generator":"Blockbench 5.0.2 glTF exporter"},"scenes":[{"nodes":[3],"name":"blockbench_export"}],"scene":0,"nodes":[{"name":"BottomChest","mesh":0},{"name":"TopChest","mesh":1},{"translation":[0,0.625,-0.4375],"name":"TopChest","children":[1]},{"name":"group","children":[0,2]}],"bufferViews":[{"buffer":0,"byteOffset":0,"byteLength":672,"target":34962,"byteStride":12},{"buffer":0,"byteOffset":672,"byteLength":672,"target":34962,"byteStride":12},{"buffer":0,"byteOffset":1344,"byteLength":448,"target":34962,"byteStride":8},{"buffer":0,"byteOffset":1792,"byteLength":168,"target":34963},{"buffer":0,"byteOffset":1960,"byteLength":480,"target":34962,"byteStride":12},{"buffer":0,"byteOffset":2440,"byteLength":480,"target":34962,"byteStride":12},{"buffer":0,"byteOffset":2920,"byteLength":320,"target":34962,"byteStride":8},{"buffer":0,"byteOffset":3240,"byteLength":120,"target":34963},{"buffer":0,"byteOffset":3360,"byteLength":16},{"buffer":0,"byteOffset":3376,"byteLength":64}],"buffers":[{"byteLength":3440,"uri":"data:application/octet-stream;base64,"}],"accessors":[{"bufferView":0,"componentType":5126,"count":56,"max":[0.8125,0.625,0.5],"min":[-0.8125,0,-0.4375],"type":"VEC3"},{"bufferView":1,"componentType":5126,"count":56,"max":[1,1,1],"min":[-1,-1,-1],"type":"VEC3"},{"bufferView":2,"componentType":5126,"count":56,"max":[0.41015625,0.30078125],"min":[0.25,0.0859375],"type":"VEC2"},{"bufferView":3,"componentType":5123,"count":84,"max":[55],"min":[0],"type":"SCALAR"},{"bufferView":4,"componentType":5126,"count":40,"max":[0.8125,0.3125,0.9375],"min":[-0.8125,0,0],"type":"VEC3"},{"bufferView":5,"componentType":5126,"count":40,"max":[1,1,1],"min":[-1,-1,-1],"type":"VEC3"},{"bufferView":6,"componentType":5126,"count":40,"max":[0.41015625,0.30078125],"min":[0.2499338537454605,0],"type":"VEC2"},{"bufferView":7,"componentType":5123,"count":60,"max":[39],"min":[0],"type":"SCALAR"},{"bufferView":8,"componentType":5126,"count":4,"max":[36.20833206176758],"min":[0],"type":"SCALAR"},{"bufferView":9,"componentType":5126,"count":4,"max":[0,0,0,1],"min":[-0.537299633026123,0,0,0.8433914184570312],"type":"VEC4"}],"materials":[{"pbrMetallicRoughness":{"metallicFactor":0,"roughnessFactor":1,"baseColorTexture":{"index":0}},"alphaMode":"MASK","alphaCutoff":0.05,"doubleSided":true}],"textures":[{"sampler":0,"source":0,"name":"texture"}],"samplers":[{"magFilter":9728,"minFilter":9728,"wrapS":33071,"wrapT":33071}],"images":[{"mimeType":"image/png","uri":"data:image/png;base64,"}],"meshes":[{"primitives":[{"mode":4,"attributes":{"POSITION":0,"NORMAL":1,"TEXCOORD_0":2},"indices":3,"material":0}]},{"primitives":[{"mode":4,"attributes":{"POSITION":4,"NORMAL":5,"TEXCOORD_0":6},"indices":7,"material":0}]}],"animations":[{"name":"Open","samplers":[{"input":8,"output":9,"interpolation":"LINEAR"}],"channels":[{"sampler":0,"target":{"node":2,"path":"rotation"}}]}]}